<svg xmlns="http://www.w3.org/2000/svg" viewBox="0 0 48 48" fill="none">
  <path d="M15.0497 11.7727H20.2173V29.0142C20.2173 30.608 19.8591 31.9924 19.1428 33.1676C18.4344 34.3428 17.4484 35.2483 16.1847 35.8842C14.9209 36.5201 13.4519 36.8381 11.7777 36.8381C10.2886 36.8381 8.93632 36.5765 7.72088 36.0533C6.51349 35.522 5.55563 34.7171 4.8473 33.6385C4.13897 32.5518 3.78883 31.1875 3.79688 29.5455H9.00071C9.01681 30.1974 9.14962 30.7569 9.39915 31.2237C9.65672 31.6825 10.0069 32.0367 10.4496 32.2862C10.9003 32.5277 11.4316 32.6484 12.0433 32.6484C12.6873 32.6484 13.2306 32.5116 13.6733 32.2379C14.1241 31.9562 14.4661 31.5457 14.6996 31.0064C14.933 30.4671 15.0497 29.803 15.0497 29.0142V11.7727ZM24.9398 36.5V11.7727H34.6955C36.5709 11.7727 38.1687 12.1309 39.4888 12.8473C40.8089 13.5556 41.815 14.5417 42.5072 15.8054C43.2075 17.0611 43.5577 18.5099 43.5577 20.152C43.5577 21.794 43.2035 23.2429 42.4952 24.4986C41.7868 25.7543 40.7606 26.7322 39.4163 27.4325C38.0802 28.1328 36.4623 28.483 34.5626 28.483H28.3446V24.2933H33.7175C34.7236 24.2933 35.5527 24.1203 36.2047 23.7741C36.8647 23.42 37.3557 22.933 37.6777 22.3132C38.0077 21.6854 38.1727 20.965 38.1727 20.152C38.1727 19.331 38.0077 18.6146 37.6777 18.0028C37.3557 17.383 36.8647 16.9041 36.2047 16.5661C35.5446 16.2199 34.7075 16.0469 33.6933 16.0469H30.1678V36.5H24.9398Z"/>
  <style>
    path {
      fill: oklch(0% 0 0);
    }
    @media (prefers-color-scheme: dark) {
      path {
        fill: oklch(100% 0 0);
      }
    }
  </style>
</svg>